<svg id="visual" viewBox="0 0 450 900" width="450" height="900" xmlns="http://www.w3.org/2000/svg" xmlns:xlink="http://www.w3.org/1999/xlink" version="1.1"><rect x="0" y="0" width="450" height="900" fill="#f0b100"></rect><defs><linearGradient id="grad1_0" x1="0%" y1="0%" x2="100%" y2="100%"><stop offset="30%" stop-color="#ba8e23" stop-opacity="1"></stop><stop offset="70%" stop-color="#ba8e23" stop-opacity="1"></stop></linearGradient></defs><defs><linearGradient id="grad1_1" x1="0%" y1="0%" x2="100%" y2="100%"><stop offset="30%" stop-color="#ba8e23" stop-opacity="1"></stop><stop offset="70%" stop-color="#c7971e" stop-opacity="1"></stop></linearGradient></defs><defs><linearGradient id="grad1_2" x1="0%" y1="0%" x2="100%" y2="100%"><stop offset="30%" stop-color="#d59f18" stop-opacity="1"></stop><stop offset="70%" stop-color="#c7971e" stop-opacity="1"></stop></linearGradient></defs><defs><linearGradient id="grad1_3" x1="0%" y1="0%" x2="100%" y2="100%"><stop offset="30%" stop-color="#d59f18" stop-opacity="1"></stop><stop offset="70%" stop-color="#e2a80f" stop-opacity="1"></stop></linearGradient></defs><defs><linearGradient id="grad1_4" x1="0%" y1="0%" x2="100%" y2="100%"><stop offset="30%" stop-color="#f0b100" stop-opacity="1"></stop><stop offset="70%" stop-color="#e2a80f" stop-opacity="1"></stop></linearGradient></defs><defs><linearGradient id="grad2_0" x1="0%" y1="0%" x2="100%" y2="100%"><stop offset="30%" stop-color="#ba8e23" stop-opacity="1"></stop><stop offset="70%" stop-color="#ba8e23" stop-opacity="1"></stop></linearGradient></defs><defs><linearGradient id="grad2_1" x1="0%" y1="0%" x2="100%" y2="100%"><stop offset="30%" stop-color="#c7971e" stop-opacity="1"></stop><stop offset="70%" stop-color="#ba8e23" stop-opacity="1"></stop></linearGradient></defs><defs><linearGradient id="grad2_2" x1="0%" y1="0%" x2="100%" y2="100%"><stop offset="30%" stop-color="#c7971e" stop-opacity="1"></stop><stop offset="70%" stop-color="#d59f18" stop-opacity="1"></stop></linearGradient></defs><defs><linearGradient id="grad2_3" x1="0%" y1="0%" x2="100%" y2="100%"><stop offset="30%" stop-color="#e2a80f" stop-opacity="1"></stop><stop offset="70%" stop-color="#d59f18" stop-opacity="1"></stop></linearGradient></defs><defs><linearGradient id="grad2_4" x1="0%" y1="0%" x2="100%" y2="100%"><stop offset="30%" stop-color="#e2a80f" stop-opacity="1"></stop><stop offset="70%" stop-color="#f0b100" stop-opacity="1"></stop></linearGradient></defs><g transform="translate(450, 0)"><path d="M0 405C-55 401 -110 396.9 -155 374.2C-200 351.4 -235 310 -271.5 271.5C-308.1 233 -346.1 197.5 -368.6 152.7C-391.1 107.9 -398.1 54 -405 0L0 0Z" fill="#e9ad08"></path><path d="M0 324C-44 320.8 -88 317.5 -124 299.3C-160 281.2 -188 248 -217.2 217.2C-246.5 186.4 -276.9 158 -294.9 122.2C-312.9 86.3 -318.5 43.2 -324 0L0 0Z" fill="#dba414"></path><path d="M0 243C-33 240.6 -66 238.1 -93 224.5C-120 210.9 -141 186 -162.9 162.9C-184.8 139.8 -207.7 118.5 -221.2 91.6C-234.7 64.8 -238.8 32.4 -243 0L0 0Z" fill="#ce9b1c"></path><path d="M0 162C-22 160.4 -44 158.8 -62 149.7C-80 140.6 -94 124 -108.6 108.6C-123.2 93.2 -138.5 79 -147.5 61.1C-156.5 43.2 -159.2 21.6 -162 0L0 0Z" fill="#c19221"></path><path d="M0 81C-11 80.2 -22 79.4 -31 74.8C-40 70.3 -47 62 -54.3 54.3C-61.6 46.6 -69.2 39.5 -73.7 30.5C-78.2 21.6 -79.6 10.8 -81 0L0 0Z" fill="#ba8e23"></path></g><g transform="translate(0, 900)"><path d="M0 -405C53.1 -399.1 106.2 -393.2 155 -374.2C203.8 -355.2 248.4 -323 284.3 -284.3C320.1 -245.5 347.2 -200 365.9 -151.5C384.5 -103.1 394.8 -51.5 405 0L0 0Z" fill="#e9ad08"></path><path d="M0 -324C42.5 -319.3 84.9 -314.5 124 -299.3C163.1 -284.1 198.7 -258.4 227.4 -227.4C256.1 -196.4 277.8 -160 292.7 -121.2C307.6 -82.4 315.8 -41.2 324 0L0 0Z" fill="#dba414"></path><path d="M0 -243C31.8 -239.5 63.7 -235.9 93 -224.5C122.3 -213.1 149 -193.8 170.6 -170.6C192.1 -147.3 208.3 -120 219.5 -90.9C230.7 -61.8 236.9 -30.9 243 0L0 0Z" fill="#ce9b1c"></path><path d="M0 -162C21.2 -159.6 42.5 -157.3 62 -149.7C81.5 -142.1 99.4 -129.2 113.7 -113.7C128 -98.2 138.9 -80 146.3 -60.6C153.8 -41.2 157.9 -20.6 162 0L0 0Z" fill="#c19221"></path><path d="M0 -81C10.6 -79.8 21.2 -78.6 31 -74.8C40.8 -71 49.7 -64.6 56.9 -56.9C64 -49.1 69.4 -40 73.2 -30.3C76.9 -20.6 79 -10.3 81 0L0 0Z" fill="#ba8e23"></path></g></svg>